<mxfile host="app.diagrams.net" agent="Mozilla/5.0 (Macintosh; Intel Mac OS X 10_15_7) AppleWebKit/537.36 (KHTML, like Gecko) Chrome/135.0.0.0 Safari/537.36" version="26.2.14">
  <diagram name="Page-1" id="zaW3kGBoXlxkZL6r5x43">
    <mxGraphModel dx="1000" dy="769" grid="1" gridSize="10" guides="1" tooltips="1" connect="1" arrows="1" fold="1" page="1" pageScale="1" pageWidth="850" pageHeight="1100" math="0" shadow="0">
      <root>
        <mxCell id="0" />
        <mxCell id="1" parent="0" />
        <mxCell id="3sviveNRv0EcIEeFM8XB-8" style="edgeStyle=orthogonalEdgeStyle;rounded=0;orthogonalLoop=1;jettySize=auto;html=1;exitX=-0.007;exitY=0.388;exitDx=0;exitDy=0;strokeColor=#FF3333;strokeWidth=3;exitPerimeter=0;" edge="1" parent="1" source="3sviveNRv0EcIEeFM8XB-5" target="9_aCQrhDmj9bjDGeZDC_-39">
          <mxGeometry relative="1" as="geometry">
            <Array as="points">
              <mxPoint x="320" y="380" />
              <mxPoint x="320" y="380" />
            </Array>
          </mxGeometry>
        </mxCell>
        <mxCell id="3sviveNRv0EcIEeFM8XB-5" value="&lt;font style=&quot;font-size: 18px;&quot;&gt;&lt;b&gt;GitHub Actions&lt;/b&gt;&lt;/font&gt;&lt;div&gt;&lt;font size=&quot;3&quot;&gt;&lt;b&gt;Secrets&lt;/b&gt;&lt;/font&gt;&lt;/div&gt;" style="whiteSpace=wrap;html=1;aspect=fixed;" vertex="1" parent="1">
          <mxGeometry x="361" y="323" width="147" height="147" as="geometry" />
        </mxCell>
        <mxCell id="9_aCQrhDmj9bjDGeZDC_-28" value="" style="edgeStyle=orthogonalEdgeStyle;rounded=0;orthogonalLoop=1;jettySize=auto;html=1;strokeColor=#FF3333;strokeWidth=3;" parent="1" source="9_aCQrhDmj9bjDGeZDC_-1" target="9_aCQrhDmj9bjDGeZDC_-3" edge="1">
          <mxGeometry relative="1" as="geometry" />
        </mxCell>
        <mxCell id="9_aCQrhDmj9bjDGeZDC_-1" value="&lt;div style=&quot;background-color:#ffffff;color:#080808&quot;&gt;&lt;pre style=&quot;font-family:&#39;JetBrains Mono&#39;,monospace;font-size:9.8pt;&quot;&gt;&lt;span style=&quot;color:#067d17;&quot;&gt;$HOME/.aws/config&lt;/span&gt;&lt;/pre&gt;&lt;/div&gt;" style="shape=cylinder3;whiteSpace=wrap;html=1;boundedLbl=1;backgroundOutline=1;size=15;" parent="1" vertex="1">
          <mxGeometry x="110" y="140" width="60" height="54" as="geometry" />
        </mxCell>
        <mxCell id="9_aCQrhDmj9bjDGeZDC_-2" value="Learner Lab" style="ellipse;shape=cloud;whiteSpace=wrap;html=1;" parent="1" vertex="1">
          <mxGeometry x="80" width="120" height="80" as="geometry" />
        </mxCell>
        <mxCell id="9_aCQrhDmj9bjDGeZDC_-3" value="AWS CLI" style="shape=process;whiteSpace=wrap;html=1;backgroundOutline=1;fillColor=#d5e8d4;strokeColor=#82b366;" parent="1" vertex="1">
          <mxGeometry x="80" y="231" width="120" height="60" as="geometry" />
        </mxCell>
        <mxCell id="9_aCQrhDmj9bjDGeZDC_-5" value="Django web app" style="shape=process;whiteSpace=wrap;html=1;backgroundOutline=1;fillColor=#ffe6cc;strokeColor=#d79b00;" parent="1" vertex="1">
          <mxGeometry x="240" y="231" width="120" height="60" as="geometry" />
        </mxCell>
        <mxCell id="9_aCQrhDmj9bjDGeZDC_-60" style="edgeStyle=orthogonalEdgeStyle;rounded=0;orthogonalLoop=1;jettySize=auto;html=1;exitX=0.145;exitY=1;exitDx=0;exitDy=-4.35;exitPerimeter=0;entryX=0.5;entryY=0;entryDx=0;entryDy=0;strokeWidth=3;strokeColor=#FF3333;" parent="1" source="9_aCQrhDmj9bjDGeZDC_-6" target="9_aCQrhDmj9bjDGeZDC_-5" edge="1">
          <mxGeometry relative="1" as="geometry" />
        </mxCell>
        <mxCell id="9_aCQrhDmj9bjDGeZDC_-6" value="&lt;div style=&quot;background-color: rgb(255, 255, 255); color: rgb(8, 8, 8);&quot;&gt;&lt;pre style=&quot;font-family:&#39;JetBrains Mono&#39;,monospace;font-size:9.8pt;&quot;&gt;&lt;span style=&quot;color: rgb(6, 125, 23);&quot;&gt;.env&lt;/span&gt;&lt;/pre&gt;&lt;/div&gt;" style="shape=cylinder3;whiteSpace=wrap;html=1;boundedLbl=1;backgroundOutline=1;size=15;" parent="1" vertex="1">
          <mxGeometry x="388" y="130" width="60" height="69" as="geometry" />
        </mxCell>
        <mxCell id="9_aCQrhDmj9bjDGeZDC_-18" value="&lt;b&gt;&lt;font style=&quot;font-size: 24px;&quot;&gt;1&lt;/font&gt;&lt;/b&gt;" style="shape=singleArrow;direction=south;whiteSpace=wrap;html=1;fillColor=#f8cecc;strokeColor=#b85450;" parent="1" vertex="1">
          <mxGeometry x="130" y="80" width="20" height="60" as="geometry" />
        </mxCell>
        <mxCell id="9_aCQrhDmj9bjDGeZDC_-20" value="&lt;font style=&quot;font-size: 24px;&quot;&gt;&lt;b&gt;2&lt;/b&gt;&lt;/font&gt;" style="shape=singleArrow;direction=east;whiteSpace=wrap;html=1;fillColor=#f8cecc;strokeColor=#b85450;" parent="1" vertex="1">
          <mxGeometry x="180" y="159" width="170" height="20" as="geometry" />
        </mxCell>
        <mxCell id="9_aCQrhDmj9bjDGeZDC_-21" value="&lt;font style=&quot;font-size: 24px;&quot;&gt;&lt;b&gt;3&lt;/b&gt;&lt;/font&gt;" style="shape=singleArrow;direction=east;whiteSpace=wrap;html=1;fillColor=#f8cecc;strokeColor=#b85450;" parent="1" vertex="1">
          <mxGeometry x="470" y="159" width="80" height="20" as="geometry" />
        </mxCell>
        <mxCell id="9_aCQrhDmj9bjDGeZDC_-39" value="Elastic Beanstalk container" style="points=[[0,0],[0.25,0],[0.5,0],[0.75,0],[1,0],[1,0.25],[1,0.5],[1,0.75],[1,1],[0.75,1],[0.5,1],[0.25,1],[0,1],[0,0.75],[0,0.5],[0,0.25]];outlineConnect=0;gradientColor=none;html=1;whiteSpace=wrap;fontSize=12;fontStyle=0;container=0;pointerEvents=0;collapsible=0;recursiveResize=0;shape=mxgraph.aws4.group;grIcon=mxgraph.aws4.group_elastic_beanstalk;strokeColor=#D86613;fillColor=none;verticalAlign=top;align=left;spacingLeft=30;fontColor=#D86613;dashed=0;" parent="1" vertex="1">
          <mxGeometry x="82" y="323" width="215" height="220" as="geometry" />
        </mxCell>
        <mxCell id="9_aCQrhDmj9bjDGeZDC_-58" style="edgeStyle=orthogonalEdgeStyle;rounded=0;orthogonalLoop=1;jettySize=auto;html=1;exitX=0.5;exitY=1;exitDx=0;exitDy=0;" parent="1" source="9_aCQrhDmj9bjDGeZDC_-39" target="9_aCQrhDmj9bjDGeZDC_-39" edge="1">
          <mxGeometry relative="1" as="geometry" />
        </mxCell>
        <mxCell id="9_aCQrhDmj9bjDGeZDC_-10" value="Container" style="swimlane;container=0;" parent="1" vertex="1">
          <mxGeometry x="558" y="163" width="160" height="130" as="geometry" />
        </mxCell>
        <mxCell id="9_aCQrhDmj9bjDGeZDC_-8" value="Django web app" style="shape=process;whiteSpace=wrap;html=1;backgroundOutline=1;container=0;fillColor=#ffe6cc;strokeColor=#d79b00;" parent="1" vertex="1">
          <mxGeometry x="578" y="213" width="120" height="60" as="geometry" />
        </mxCell>
        <mxCell id="9_aCQrhDmj9bjDGeZDC_-13" value="" style="image;aspect=fixed;html=1;points=[];align=center;fontSize=12;image=img/lib/azure2/preview/Web_Environment.svg;container=0;" parent="1" vertex="1">
          <mxGeometry x="558" y="153" width="36.97" height="38.13" as="geometry" />
        </mxCell>
        <mxCell id="9_aCQrhDmj9bjDGeZDC_-29" style="edgeStyle=orthogonalEdgeStyle;rounded=0;orthogonalLoop=1;jettySize=auto;html=1;entryX=0.5;entryY=0;entryDx=0;entryDy=0;exitX=0.607;exitY=0.991;exitDx=0;exitDy=0;exitPerimeter=0;strokeWidth=3;strokeColor=#FF3333;" parent="1" source="9_aCQrhDmj9bjDGeZDC_-13" target="9_aCQrhDmj9bjDGeZDC_-8" edge="1">
          <mxGeometry relative="1" as="geometry">
            <Array as="points">
              <mxPoint x="638" y="193" />
            </Array>
          </mxGeometry>
        </mxCell>
        <mxCell id="9_aCQrhDmj9bjDGeZDC_-9" value="" style="image;sketch=0;aspect=fixed;html=1;points=[];align=center;fontSize=12;image=img/lib/mscae/Docker.svg;container=0;" parent="1" vertex="1">
          <mxGeometry x="682" y="110" width="50" height="41" as="geometry" />
        </mxCell>
        <mxCell id="9_aCQrhDmj9bjDGeZDC_-32" value="&lt;i&gt;Environment&lt;/i&gt;" style="text;html=1;align=center;verticalAlign=middle;resizable=0;points=[];autosize=1;strokeColor=none;fillColor=none;container=0;" parent="1" vertex="1">
          <mxGeometry x="537" y="126" width="90" height="30" as="geometry" />
        </mxCell>
        <mxCell id="9_aCQrhDmj9bjDGeZDC_-49" value="Container" style="swimlane;container=0;" parent="1" vertex="1">
          <mxGeometry x="104" y="397" width="160" height="130" as="geometry" />
        </mxCell>
        <mxCell id="9_aCQrhDmj9bjDGeZDC_-51" value="Django web app" style="shape=process;whiteSpace=wrap;html=1;backgroundOutline=1;container=0;fillColor=#ffe6cc;strokeColor=#d79b00;" parent="1" vertex="1">
          <mxGeometry x="124" y="447" width="120" height="60" as="geometry" />
        </mxCell>
        <mxCell id="9_aCQrhDmj9bjDGeZDC_-52" value="" style="image;aspect=fixed;html=1;points=[];align=center;fontSize=12;image=img/lib/azure2/preview/Web_Environment.svg;container=0;" parent="1" vertex="1">
          <mxGeometry x="104" y="387" width="36.97" height="38.13" as="geometry" />
        </mxCell>
        <mxCell id="9_aCQrhDmj9bjDGeZDC_-53" style="edgeStyle=orthogonalEdgeStyle;rounded=0;orthogonalLoop=1;jettySize=auto;html=1;entryX=0.5;entryY=0;entryDx=0;entryDy=0;exitX=0.607;exitY=0.991;exitDx=0;exitDy=0;exitPerimeter=0;strokeWidth=3;strokeColor=#FF3333;" parent="1" source="9_aCQrhDmj9bjDGeZDC_-52" target="9_aCQrhDmj9bjDGeZDC_-51" edge="1">
          <mxGeometry relative="1" as="geometry">
            <Array as="points">
              <mxPoint x="184" y="427" />
            </Array>
          </mxGeometry>
        </mxCell>
        <mxCell id="9_aCQrhDmj9bjDGeZDC_-55" value="" style="image;sketch=0;aspect=fixed;html=1;points=[];align=center;fontSize=12;image=img/lib/mscae/Docker.svg;container=0;" parent="1" vertex="1">
          <mxGeometry x="221.5" y="343.5" width="50" height="41" as="geometry" />
        </mxCell>
        <mxCell id="9_aCQrhDmj9bjDGeZDC_-56" value="&lt;i&gt;Environment&lt;/i&gt;" style="text;html=1;align=center;verticalAlign=middle;resizable=0;points=[];autosize=1;strokeColor=none;fillColor=none;container=0;" parent="1" vertex="1">
          <mxGeometry x="76.5" y="364.5" width="90" height="30" as="geometry" />
        </mxCell>
        <mxCell id="3sviveNRv0EcIEeFM8XB-2" value="" style="verticalLabelPosition=bottom;html=1;verticalAlign=top;align=center;strokeColor=none;fillColor=#00BEF2;shape=mxgraph.azure.github_code;pointerEvents=1;" vertex="1" parent="1">
          <mxGeometry x="365" y="326" width="50" height="50" as="geometry" />
        </mxCell>
        <mxCell id="3sviveNRv0EcIEeFM8XB-6" value="&lt;font style=&quot;font-size: 24px;&quot;&gt;&lt;b&gt;4&lt;/b&gt;&lt;/font&gt;" style="shape=singleArrow;direction=south;whiteSpace=wrap;html=1;fillColor=#f8cecc;strokeColor=#b85450;" vertex="1" parent="1">
          <mxGeometry x="411" y="211" width="20" height="100" as="geometry" />
        </mxCell>
        <mxCell id="3sviveNRv0EcIEeFM8XB-9" value="" style="shape=image;html=1;verticalAlign=top;verticalLabelPosition=bottom;labelBackgroundColor=#ffffff;imageAspect=0;aspect=fixed;image=https://cdn4.iconfinder.com/data/icons/essentials-71/24/008_-_Lock-128.png" vertex="1" parent="1">
          <mxGeometry x="458" y="409" width="48" height="48" as="geometry" />
        </mxCell>
      </root>
    </mxGraphModel>
  </diagram>
</mxfile>
